<svg width="168" height="87" viewBox="0 0 168 87" fill="none" xmlns="http://www.w3.org/2000/svg">
<path d="M2.76 57H17.88C18.1 57 18.29 57.08 18.45 57.24C18.61 57.4 18.69 57.59 18.69 57.81V62.37C18.69 62.59 18.61 62.78 18.45 62.94C18.29 63.1 18.1 63.18 17.88 63.18H9.3V65.4H17.28C17.5 65.4 17.69 65.48 17.85 65.64C18.01 65.8 18.09 65.99 18.09 66.21V70.74C18.09 70.96 18.01 71.15 17.85 71.31C17.69 71.47 17.5 71.55 17.28 71.55H9.3V77.19C9.3 77.41 9.22 77.6 9.06 77.76C8.9 77.92 8.71 78 8.49 78H2.76C2.54 78 2.35 77.92 2.19 77.76C2.03 77.6 1.95 77.41 1.95 77.19V57.81C1.95 57.59 2.03 57.4 2.19 57.24C2.35 57.08 2.54 57 2.76 57ZM27.5726 78H22.2026C21.9826 78 21.7926 77.92 21.6326 77.76C21.4726 77.6 21.3926 77.41 21.3926 77.19V57.51C21.3926 57.29 21.4726 57.1 21.6326 56.94C21.7926 56.78 21.9826 56.7 22.2026 56.7H27.5726C27.7926 56.7 27.9826 56.78 28.1426 56.94C28.3026 57.1 28.3826 57.29 28.3826 57.51V77.19C28.3826 77.41 28.3026 77.6 28.1426 77.76C27.9826 77.92 27.7926 78 27.5726 78ZM30.9328 73.53C30.9328 70.83 33.1228 69.1 37.5028 68.34L40.6828 67.83C40.6828 67.23 40.6328 66.83 40.5328 66.63C40.4328 66.41 40.1928 66.3 39.8128 66.3C39.4528 66.3 39.0928 66.46 38.7328 66.78C38.3728 67.1 38.0328 67.26 37.7128 67.26H32.6128C32.1728 67.26 31.9528 67.05 31.9528 66.63C31.9528 66.19 32.1028 65.73 32.4028 65.25C32.7228 64.75 33.1728 64.26 33.7528 63.78C34.3528 63.3 35.1828 62.9 36.2428 62.58C37.3228 62.26 38.5228 62.1 39.8428 62.1C42.5228 62.1 44.5328 62.66 45.8728 63.78C47.2128 64.9 47.8828 66.5 47.8828 68.58V77.19C47.8828 77.41 47.8028 77.6 47.6428 77.76C47.4828 77.92 47.2928 78 47.0728 78H41.8228C41.6028 78 41.4128 77.92 41.2528 77.76C41.0928 77.6 41.0128 77.41 41.0128 77.19V76.35C40.0728 77.65 38.7028 78.3 36.9028 78.3C35.1028 78.3 33.6528 77.85 32.5528 76.95C31.4728 76.03 30.9328 74.89 30.9328 73.53ZM38.8228 73.86C40.1228 73.86 40.7728 73.08 40.7728 71.52L39.0028 71.91C38.1228 72.11 37.6828 72.48 37.6828 73.02C37.6828 73.26 37.7828 73.46 37.9828 73.62C38.1828 73.78 38.4628 73.86 38.8228 73.86ZM59.0288 73.68C59.0288 73.48 58.9788 73.32 58.8788 73.2C58.6188 72.88 57.6588 72.57 55.9988 72.27C54.3388 71.95 52.9888 71.4 51.9488 70.62C50.9288 69.82 50.4188 68.71 50.4188 67.29C50.4188 65.87 51.0988 64.65 52.4588 63.63C53.8188 62.61 55.6488 62.1 57.9488 62.1C60.2688 62.1 62.1688 62.58 63.6488 63.54C65.1288 64.5 65.8688 65.47 65.8688 66.45C65.8688 66.67 65.7988 66.86 65.6588 67.02C65.5388 67.18 65.3888 67.26 65.2088 67.26H60.1688C59.8688 67.26 59.4988 67.1 59.0588 66.78C58.6188 66.46 58.2888 66.3 58.0688 66.3C57.6088 66.3 57.3788 66.46 57.3788 66.78C57.3788 66.98 57.4288 67.14 57.5288 67.26C57.7888 67.56 58.8788 67.85 60.7988 68.13C62.7188 68.41 64.1488 69.03 65.0888 69.99C66.0488 70.93 66.5288 71.98 66.5288 73.14C66.5288 74.76 65.7988 76.03 64.3388 76.95C62.8788 77.87 60.8088 78.33 58.1288 78.33C56.7088 78.33 55.4488 78.17 54.3488 77.85C53.2488 77.53 52.4088 77.13 51.8288 76.65C50.6888 75.71 50.1188 74.83 50.1188 74.01C50.1188 73.79 50.1888 73.6 50.3288 73.44C50.4688 73.28 50.6388 73.2 50.8388 73.2H56.0588C56.3388 73.2 56.6988 73.36 57.1387 73.68C57.5987 73.98 58.0288 74.13 58.4288 74.13C58.8288 74.13 59.0288 73.98 59.0288 73.68ZM76.2942 69.12V77.19C76.2942 77.41 76.2142 77.6 76.0542 77.76C75.8942 77.92 75.7042 78 75.4842 78H69.6342C69.4142 78 69.2242 77.92 69.0642 77.76C68.9042 77.6 68.8242 77.41 68.8242 77.19V57.51C68.8242 57.29 68.9042 57.1 69.0642 56.94C69.2242 56.78 69.4142 56.7 69.6342 56.7H75.4842C75.7042 56.7 75.8942 56.78 76.0542 56.94C76.2142 57.1 76.2942 57.29 76.2942 57.51V63.96C77.4342 62.72 78.8942 62.1 80.6742 62.1C82.4542 62.1 83.9242 62.68 85.0842 63.84C86.2442 65 86.8242 66.69 86.8242 68.91V77.16C86.8242 77.38 86.7442 77.57 86.5842 77.73C86.4242 77.89 86.2342 77.97 86.0142 77.97H80.1342C79.9142 77.97 79.7242 77.89 79.5642 77.73C79.4042 77.57 79.3242 77.38 79.3242 77.16V69.12C79.3242 68.02 78.8142 67.47 77.7942 67.47C76.7942 67.47 76.2942 68.02 76.2942 69.12ZM90.9436 57H106.064C106.284 57 106.474 57.08 106.634 57.24C106.794 57.4 106.874 57.59 106.874 57.81V62.37C106.874 62.59 106.794 62.78 106.634 62.94C106.474 63.1 106.284 63.18 106.064 63.18H97.4836V65.4H105.464C105.684 65.4 105.874 65.48 106.034 65.64C106.194 65.8 106.274 65.99 106.274 66.21V70.74C106.274 70.96 106.194 71.15 106.034 71.31C105.874 71.47 105.684 71.55 105.464 71.55H97.4836V77.19C97.4836 77.41 97.4036 77.6 97.2436 77.76C97.0836 77.92 96.8936 78 96.6736 78H90.9436C90.7236 78 90.5336 77.92 90.3736 77.76C90.2136 77.6 90.1336 77.41 90.1336 77.19V57.81C90.1336 57.59 90.2136 57.4 90.3736 57.24C90.5336 57.08 90.7236 57 90.9436 57ZM109.126 71.22V69.18C109.126 66.9 109.936 65.15 111.556 63.93C113.176 62.71 115.266 62.1 117.826 62.1C120.386 62.1 122.476 62.71 124.096 63.93C125.716 65.15 126.526 66.9 126.526 69.18V71.22C126.526 73.52 125.746 75.28 124.186 76.5C122.626 77.7 120.506 78.3 117.826 78.3C115.146 78.3 113.026 77.7 111.466 76.5C109.906 75.28 109.126 73.52 109.126 71.22ZM119.176 71.46V68.94C119.176 68.18 119.076 67.65 118.876 67.35C118.676 67.05 118.326 66.9 117.826 66.9C117.326 66.9 116.976 67.05 116.776 67.35C116.576 67.65 116.476 68.18 116.476 68.94V71.46C116.476 72.26 116.576 72.8 116.776 73.08C116.976 73.36 117.326 73.5 117.826 73.5C118.326 73.5 118.676 73.35 118.876 73.05C119.076 72.75 119.176 72.22 119.176 71.46ZM128.638 71.22V69.18C128.638 66.9 129.448 65.15 131.068 63.93C132.688 62.71 134.778 62.1 137.338 62.1C139.898 62.1 141.988 62.71 143.608 63.93C145.228 65.15 146.038 66.9 146.038 69.18V71.22C146.038 73.52 145.258 75.28 143.698 76.5C142.138 77.7 140.018 78.3 137.338 78.3C134.658 78.3 132.538 77.7 130.978 76.5C129.418 75.28 128.638 73.52 128.638 71.22ZM138.688 71.46V68.94C138.688 68.18 138.588 67.65 138.388 67.35C138.188 67.05 137.838 66.9 137.338 66.9C136.838 66.9 136.488 67.05 136.288 67.35C136.088 67.65 135.988 68.18 135.988 68.94V71.46C135.988 72.26 136.088 72.8 136.288 73.08C136.488 73.36 136.838 73.5 137.338 73.5C137.838 73.5 138.188 73.35 138.388 73.05C138.588 72.75 138.688 72.22 138.688 71.46ZM148.15 71.37V69C148.15 66.76 148.75 65.05 149.95 63.87C151.15 62.69 152.61 62.1 154.33 62.1C156.07 62.1 157.46 62.57 158.5 63.51V57.51C158.5 57.29 158.58 57.1 158.74 56.94C158.9 56.78 159.09 56.7 159.31 56.7H164.86C165.08 56.7 165.27 56.78 165.43 56.94C165.59 57.1 165.67 57.29 165.67 57.51V77.19C165.67 77.41 165.59 77.6 165.43 77.76C165.27 77.92 165.08 78 164.86 78H159.76C159.54 78 159.35 77.92 159.19 77.76C159.03 77.6 158.95 77.41 158.95 77.19V76.29C157.91 77.63 156.44 78.3 154.54 78.3C152.64 78.3 151.1 77.74 149.92 76.62C148.74 75.48 148.15 73.73 148.15 71.37ZM158.5 71.19V68.97C158.44 67.97 157.94 67.47 157 67.47C156 67.47 155.5 68.05 155.5 69.21V71.19C155.5 72.35 156 72.93 157 72.93C158 72.93 158.5 72.35 158.5 71.19Z" fill="#F4A13C"/>
<g clip-path="url(#clip0_2_53)">
<path d="M100.979 15.875C100.906 15.7962 100.817 15.7333 100.719 15.6903C100.62 15.6472 100.514 15.625 100.406 15.625H80.0938C79.986 15.6247 79.8793 15.6467 79.7804 15.6896C79.6815 15.7325 79.5926 15.7954 79.5192 15.8744C79.4458 15.9534 79.3896 16.0466 79.354 16.1484C79.3184 16.2501 79.3043 16.3582 79.3125 16.4656L80.0938 26.6008C80.1048 26.7399 80.1528 26.8735 80.2329 26.9877C80.313 27.102 80.4223 27.1927 80.5493 27.2504C80.6763 27.3081 80.8165 27.3308 80.9553 27.316C81.094 27.3012 81.2263 27.2496 81.3383 27.1664C81.8725 26.7684 82.5243 26.56 83.1904 26.5741C83.8564 26.5883 84.4987 26.8242 85.0156 27.2445C85.1542 27.3555 85.3264 27.4159 85.5039 27.4159C85.6814 27.4159 85.8536 27.3555 85.9922 27.2445C86.5237 26.8099 87.1892 26.5725 87.8758 26.5725C88.5624 26.5725 89.2278 26.8099 89.7594 27.2445C89.8979 27.3555 90.0702 27.4159 90.2477 27.4159C90.4252 27.4159 90.5974 27.3555 90.7359 27.2445C91.2675 26.8099 91.9329 26.5725 92.6195 26.5725C93.3061 26.5725 93.9716 26.8099 94.5031 27.2445C94.6417 27.3555 94.8139 27.4159 94.9914 27.4159C95.1689 27.4159 95.3411 27.3555 95.4797 27.2445C95.9965 26.8241 96.6388 26.5881 97.3049 26.5739C97.971 26.5598 98.6228 26.7683 99.157 27.1664C99.2691 27.2508 99.4018 27.3035 99.5412 27.319C99.6806 27.3344 99.8216 27.312 99.9494 27.2542C100.077 27.1963 100.187 27.1051 100.267 26.9901C100.348 26.8752 100.396 26.7407 100.406 26.6008L101.188 16.4656C101.195 16.3581 101.181 16.2501 101.145 16.1485C101.109 16.0469 101.053 15.9537 100.979 15.875Z" fill="#C73B40"/>
<path d="M100.979 15.875C100.906 15.7962 100.817 15.7333 100.719 15.6903C100.62 15.6472 100.514 15.625 100.406 15.625H98.8437C98.9515 15.6247 99.0582 15.6467 99.1571 15.6896C99.256 15.7325 99.3449 15.7954 99.4183 15.8744C99.4917 15.9534 99.5479 16.0466 99.5835 16.1484C99.6191 16.2501 99.6332 16.3582 99.625 16.4656L98.8437 26.6008C98.8335 26.7092 98.8002 26.8141 98.7461 26.9086C98.8913 26.9834 99.0302 27.0696 99.1617 27.1664C99.2737 27.2496 99.406 27.3012 99.5447 27.316C99.6835 27.3308 99.8237 27.3081 99.9507 27.2504C100.078 27.1927 100.187 27.102 100.267 26.9877C100.347 26.8735 100.395 26.7399 100.406 26.6008L101.187 16.4656C101.195 16.3581 101.181 16.2501 101.145 16.1485C101.109 16.0469 101.053 15.9537 100.979 15.875Z" fill="#D26266"/>
<path d="M88.8578 50H88.7656C88.5678 50.0005 88.3772 49.926 88.2322 49.7914C88.0872 49.6569 87.9986 49.4723 87.9844 49.275L86.8648 33.7633L86.4313 27.7719C86.4203 27.5678 86.4898 27.3676 86.6247 27.2141C86.7597 27.0607 86.9494 26.9662 87.1532 26.9509C87.357 26.9357 87.5586 27.001 87.7149 27.1327C87.8711 27.2644 87.9696 27.452 87.9891 27.6555L89.6367 49.1594C89.6449 49.2669 89.6308 49.3749 89.5952 49.4766C89.5596 49.5784 89.5034 49.6716 89.43 49.7506C89.3566 49.8296 89.2677 49.8925 89.1688 49.9354C89.0699 49.9783 88.9633 50.0003 88.8555 50H88.8578Z" fill="black"/>
<path d="M100.094 25.9125C99.3643 25.3698 98.4894 25.0575 97.5812 25.0158C96.673 24.974 95.773 25.2047 94.9969 25.6781C94.2836 25.2391 93.4625 25.0067 92.625 25.0067C91.7875 25.0067 90.9664 25.2391 90.2531 25.6781C89.5399 25.2391 88.7188 25.0067 87.8812 25.0067C87.0437 25.0067 86.2226 25.2391 85.5094 25.6781C84.7332 25.2047 83.8333 24.974 82.9251 25.0158C82.0169 25.0575 81.1419 25.3698 80.4125 25.9125C80.3071 25.991 80.2233 26.0948 80.1686 26.2142C80.114 26.3337 80.0904 26.4651 80.1 26.5961L81.8328 49.2781C81.8478 49.4749 81.9367 49.6586 82.0816 49.7926C82.2265 49.9265 82.4168 50.0006 82.6141 50H97.9844C98.1822 50.0005 98.3728 49.926 98.5178 49.7914C98.6628 49.6568 98.7514 49.4723 98.7656 49.275L100.322 27.7719L100.406 26.5961C100.416 26.4651 100.392 26.3337 100.338 26.2142C100.283 26.0948 100.199 25.991 100.094 25.9125Z" fill="#FFFF97"/>
<path d="M98.5312 25.9125C97.8018 25.3698 96.9269 25.0575 96.0187 25.0158C95.1105 24.974 94.2105 25.2047 93.4344 25.6781C92.7211 25.2391 91.9 25.0067 91.0625 25.0067C90.225 25.0067 89.4039 25.2391 88.6906 25.6781C87.9774 25.2391 87.1563 25.0067 86.3187 25.0067C85.4812 25.0067 84.6601 25.2391 83.9469 25.6781C83.1707 25.2047 82.2708 24.974 81.3626 25.0158C80.4544 25.0575 79.5794 25.3698 78.85 25.9125C78.7446 25.991 78.6608 26.0948 78.6061 26.2142C78.5515 26.3337 78.5279 26.4651 78.5375 26.5961L80.2703 49.2781C80.2853 49.4749 80.3742 49.6586 80.5191 49.7926C80.664 49.9265 80.8543 50.0006 81.0516 50H96.4219C96.6197 50.0005 96.8103 49.926 96.9553 49.7914C97.1003 49.6568 97.1889 49.4723 97.2031 49.275L98.7594 27.7719L98.8438 26.5961C98.8533 26.4651 98.8297 26.3337 98.7751 26.2142C98.7205 26.0948 98.6366 25.991 98.5312 25.9125Z" fill="#FFFF97"/>
<path d="M100.094 25.9125C99.5984 25.5476 99.0344 25.2865 98.4357 25.1448C97.8369 25.0032 97.2157 24.984 96.6094 25.0883C97.3051 25.2108 97.9629 25.4929 98.5312 25.9125C98.6366 25.991 98.7205 26.0948 98.7751 26.2142C98.8297 26.3337 98.8533 26.4651 98.8437 26.5961L98.7586 27.7719L97.2031 49.275C97.1889 49.4723 97.1003 49.6569 96.9553 49.7914C96.8103 49.926 96.6197 50.0005 96.4219 50H97.9844C98.1822 50.0005 98.3728 49.926 98.5178 49.7914C98.6628 49.6569 98.7514 49.4723 98.7656 49.275L100.322 27.7719L100.406 26.5961C100.416 26.4651 100.392 26.3337 100.338 26.2142C100.283 26.0948 100.199 25.991 100.094 25.9125Z" fill="#FFFFAC"/>
<path d="M86.3438 41.4062H69.1562C68.5346 41.4062 67.9385 41.6532 67.499 42.0927C67.0594 42.5323 66.8125 43.1284 66.8125 43.75C66.8125 44.3716 67.0594 44.9677 67.499 45.4073C67.9385 45.8468 68.5346 46.0938 69.1562 46.0938H86.3438C86.9654 46.0937 87.5615 45.8468 88.001 45.4073C88.4406 44.9677 88.6875 44.3716 88.6875 43.75C88.6875 43.1284 88.4406 42.5323 88.001 42.0927C87.5615 41.6532 86.9654 41.4062 86.3438 41.4062Z" fill="#603813"/>
<path d="M86.3438 41.4062H84.7812C85.4029 41.4062 85.999 41.6532 86.4385 42.0927C86.8781 42.5323 87.125 43.1284 87.125 43.75C87.125 44.3716 86.8781 44.9677 86.4385 45.4073C85.999 45.8468 85.4029 46.0938 84.7812 46.0938H86.3438C86.9654 46.0937 87.5615 45.8468 88.001 45.4073C88.4406 44.9677 88.6875 44.3716 88.6875 43.75C88.6875 43.1284 88.4406 42.5323 88.001 42.0927C87.5615 41.6532 86.9654 41.4062 86.3438 41.4062Z" fill="#806042"/>
<path d="M87.5156 44.5312H67.9844C67.2592 44.5313 66.5637 44.8193 66.0509 45.3321C65.5381 45.8449 65.25 46.5404 65.25 47.2656C65.25 47.9908 65.5381 48.6863 66.0509 49.1991C66.5637 49.7119 67.2592 50 67.9844 50H87.5156C88.2408 50 88.9363 49.7119 89.4491 49.1991C89.9619 48.6863 90.25 47.9908 90.25 47.2656C90.25 46.5404 89.9619 45.8449 89.4491 45.3321C88.9363 44.8193 88.2408 44.5312 87.5156 44.5312Z" fill="#F4A13C"/>
<path d="M87.5156 44.5312H85.9531C86.6783 44.5313 87.3738 44.8193 87.8866 45.3321C88.3994 45.8449 88.6875 46.5404 88.6875 47.2656C88.6875 47.9908 88.3994 48.6863 87.8866 49.1991C87.3738 49.7119 86.6783 50 85.9531 50H87.5156C88.2408 50 88.9363 49.7119 89.4491 49.1991C89.9619 48.6863 90.25 47.9908 90.25 47.2656C90.25 46.5404 89.9619 45.8449 89.4491 45.3321C88.9363 44.8193 88.2408 44.5312 87.5156 44.5312Z" fill="#F6B463"/>
<path d="M86.7344 39.0625H68.7656C68.2476 39.0625 67.7508 39.2683 67.3846 39.6346C67.0183 40.0008 66.8125 40.4976 66.8125 41.0156C66.8125 41.5336 67.0183 42.0304 67.3846 42.3967C67.7508 42.763 68.2476 42.9687 68.7656 42.9687H79.7703L81.1039 44.3023C81.2504 44.4488 81.4491 44.5311 81.6562 44.5311C81.8634 44.5311 82.0621 44.4488 82.2086 44.3023L83.5422 42.9687H86.7344C87.2524 42.9687 87.7492 42.763 88.1154 42.3967C88.4817 42.0304 88.6875 41.5336 88.6875 41.0156C88.6875 40.4976 88.4817 40.0008 88.1154 39.6346C87.7492 39.2683 87.2524 39.0625 86.7344 39.0625Z" fill="#FCCB7E"/>
<path d="M86.7344 39.0625H85.1719C85.6899 39.0625 86.1867 39.2683 86.5529 39.6346C86.9192 40.0008 87.125 40.4976 87.125 41.0156C87.125 41.5336 86.9192 42.0304 86.5529 42.3967C86.1867 42.763 85.6899 42.9688 85.1719 42.9688H86.7344C87.2524 42.9688 87.7492 42.763 88.1154 42.3967C88.4817 42.0304 88.6875 41.5336 88.6875 41.0156C88.6875 40.4976 88.4817 40.0008 88.1154 39.6346C87.7492 39.2683 87.2524 39.0625 86.7344 39.0625Z" fill="#FDD598"/>
<path d="M86.2555 35.7594H69.2445C68.5993 35.7594 67.9805 36.0157 67.5243 36.4719C67.068 36.9282 66.8117 37.547 66.8117 38.1922C66.8117 38.8374 67.068 39.4562 67.5243 39.9124C67.9805 40.3687 68.5993 40.625 69.2445 40.625H86.2555C86.9007 40.625 87.5195 40.3687 87.9757 39.9124C88.432 39.4562 88.6883 38.8374 88.6883 38.1922C88.6883 37.547 88.432 36.9282 87.9757 36.4719C87.5195 36.0157 86.9007 35.7594 86.2555 35.7594Z" fill="#AA7B50"/>
<path d="M86.2555 35.7594H84.693C85.3382 35.7594 85.957 36.0157 86.4132 36.4719C86.8695 36.9282 87.1258 37.547 87.1258 38.1922C87.1258 38.8374 86.8695 39.4562 86.4132 39.9124C85.957 40.3687 85.3382 40.625 84.693 40.625H86.2555C86.9007 40.625 87.5195 40.3687 87.9757 39.9124C88.432 39.4562 88.6883 38.8374 88.6883 38.1922C88.6883 37.547 88.432 36.9282 87.9757 36.4719C87.5195 36.0157 86.9007 35.7594 86.2555 35.7594Z" fill="#BB9573"/>
<path d="M88.4789 34.8547C88.4231 34.5144 88.2523 34.2035 87.995 33.9741C87.7376 33.7446 87.4093 33.6103 87.0648 33.5938H68.4352C68.0905 33.6105 67.7619 33.745 67.5044 33.9748C67.2469 34.2045 67.0761 34.5157 67.0203 34.8563C66.9077 35.2831 66.8381 35.7202 66.8125 36.1609C66.7902 36.4184 66.819 36.6777 66.8974 36.9239C66.9758 37.1701 67.1021 37.3983 67.2692 37.5955C67.4362 37.7926 67.6407 37.9547 67.8707 38.0724C68.1007 38.1901 68.3518 38.2611 68.6094 38.2812C68.9804 38.2786 69.3391 38.1481 69.625 37.9117C69.9144 38.1398 70.2721 38.2639 70.6406 38.2639C71.0091 38.2639 71.3669 38.1398 71.6563 37.9117C71.9456 38.1398 72.3034 38.2639 72.6719 38.2639C73.0404 38.2639 73.3981 38.1398 73.6875 37.9117C73.9769 38.1398 74.3346 38.2639 74.7031 38.2639C75.0716 38.2639 75.4294 38.1398 75.7188 37.9117C76.0081 38.1398 76.3659 38.2639 76.7344 38.2639C77.1029 38.2639 77.4606 38.1398 77.75 37.9117C78.0394 38.1398 78.3971 38.2639 78.7656 38.2639C79.1341 38.2639 79.4919 38.1398 79.7813 37.9117C80.0706 38.1398 80.4284 38.2639 80.7969 38.2639C81.1654 38.2639 81.5231 38.1398 81.8125 37.9117C82.1019 38.1398 82.4596 38.2639 82.8281 38.2639C83.1966 38.2639 83.5544 38.1398 83.8438 37.9117C84.1331 38.1398 84.4909 38.2639 84.8594 38.2639C85.2279 38.2639 85.5856 38.1398 85.875 37.9117C86.1609 38.1481 86.5196 38.2786 86.8906 38.2812C87.1482 38.2611 87.3993 38.1901 87.6293 38.0724C87.8593 37.9547 88.0638 37.7926 88.2308 37.5955C88.3979 37.3983 88.5242 37.1701 88.6026 36.9239C88.681 36.6777 88.7098 36.4184 88.6875 36.1609C88.6618 35.7196 88.5919 35.282 88.4789 34.8547Z" fill="#8CC63F"/>
<path d="M88.4789 34.8547C88.4231 34.5144 88.2523 34.2035 87.9949 33.9741C87.7376 33.7446 87.4093 33.6103 87.0648 33.5938H85.5023C85.8468 33.6103 86.1751 33.7446 86.4324 33.9741C86.6898 34.2035 86.8606 34.5144 86.9164 34.8547C87.0294 35.282 87.0993 35.7196 87.125 36.1609C87.14 36.5406 87.0538 36.9175 86.8754 37.253C86.6969 37.5884 86.4326 37.8705 86.1094 38.0703C86.3469 38.2075 86.6163 38.2803 86.8906 38.2812C87.1482 38.2611 87.3993 38.1901 87.6293 38.0724C87.8593 37.9547 88.0638 37.7926 88.2308 37.5955C88.3979 37.3983 88.5242 37.1701 88.6026 36.9239C88.681 36.6777 88.7098 36.4184 88.6875 36.1609C88.6618 35.7196 88.5919 35.282 88.4789 34.8547Z" fill="#A3D165"/>
<path d="M87.125 31.25H68.375C67.5121 31.25 66.8125 31.9496 66.8125 32.8125V33.5938C66.8125 34.4567 67.5121 35.1562 68.375 35.1562H87.125C87.9879 35.1562 88.6875 34.4567 88.6875 33.5938V32.8125C88.6875 31.9496 87.9879 31.25 87.125 31.25Z" fill="#FF0000"/>
<path d="M87.125 31.25H85.5625C85.9769 31.25 86.3743 31.4146 86.6674 31.7076C86.9604 32.0007 87.125 32.3981 87.125 32.8125V33.5938C87.125 34.0082 86.9604 34.4056 86.6674 34.6986C86.3743 34.9916 85.9769 35.1562 85.5625 35.1562H87.125C87.5394 35.1562 87.9368 34.9916 88.2299 34.6986C88.5229 34.4056 88.6875 34.0082 88.6875 33.5938V32.8125C88.6875 32.3981 88.5229 32.0007 88.2299 31.7076C87.9368 31.4146 87.5394 31.25 87.125 31.25Z" fill="#FF7777"/>
<path d="M88.4648 27.2539C85.0866 25.7731 81.4381 25.0086 77.7496 25.0086C74.0611 25.0086 70.4126 25.7731 67.0344 27.2539C66.5128 27.4645 66.0651 27.8245 65.7476 28.2888C65.4302 28.7531 65.257 29.3009 65.25 29.8633V29.9477C65.2771 30.7306 65.6126 31.471 66.1833 32.0077C66.7541 32.5443 67.5138 32.8336 68.2969 32.8125H87.2031C87.9862 32.8336 88.7459 32.5443 89.3167 32.0077C89.8874 31.471 90.2229 30.7306 90.25 29.9477V29.8633C90.243 29.3007 90.0698 28.7529 89.7522 28.2885C89.4345 27.8242 88.9866 27.4642 88.4648 27.2539Z" fill="#F4A13C"/>
<path d="M88.4648 27.2539C84.8394 25.6876 80.9168 24.9283 76.9688 25.0289C80.3892 25.1484 83.7577 25.9029 86.9023 27.2539C87.4241 27.4643 87.872 27.8242 88.1897 28.2886C88.5073 28.7529 88.6805 29.3008 88.6875 29.8633V29.9477C88.6604 30.7306 88.3249 31.471 87.7542 32.0077C87.1834 32.5443 86.4237 32.8336 85.6406 32.8125H87.2031C87.9862 32.8336 88.7459 32.5443 89.3167 32.0077C89.8874 31.471 90.2229 30.7306 90.25 29.9477V29.8633C90.243 29.3008 90.0698 28.7529 89.7522 28.2886C89.4345 27.8242 88.9866 27.4643 88.4648 27.2539Z" fill="#F6B463"/>
<path d="M91.8125 0H88.6875C88.256 0 87.9062 0.349778 87.9062 0.78125V13.2812C87.9062 13.7127 88.256 14.0625 88.6875 14.0625H91.8125C92.244 14.0625 92.5938 13.7127 92.5938 13.2812V0.78125C92.5938 0.349778 92.244 0 91.8125 0Z" fill="#E6E6E6"/>
<path d="M101.969 12.5H78.5312C78.0998 12.5 77.75 12.8498 77.75 13.2812V16.4062C77.75 16.8377 78.0998 17.1875 78.5312 17.1875H101.969C102.4 17.1875 102.75 16.8377 102.75 16.4062V13.2812C102.75 12.8498 102.4 12.5 101.969 12.5Z" fill="#FFFF97"/>
<path d="M101.969 12.5H100.406C100.613 12.5 100.812 12.5823 100.959 12.7288C101.105 12.8753 101.188 13.074 101.188 13.2812V16.4062C101.188 16.6135 101.105 16.8122 100.959 16.9587C100.812 17.1052 100.613 17.1875 100.406 17.1875H101.969C102.176 17.1875 102.375 17.1052 102.521 16.9587C102.668 16.8122 102.75 16.6135 102.75 16.4062V13.2812C102.75 13.074 102.668 12.8753 102.521 12.7288C102.375 12.5823 102.176 12.5 101.969 12.5Z" fill="#FFFFAC"/>
</g>
<defs>
<clipPath id="clip0_2_53">
<rect width="50" height="50" fill="white" transform="translate(59)"/>
</clipPath>
</defs>
</svg>
